<svg width="10" height="74" viewBox="0 0 10 74" fill="none" xmlns="http://www.w3.org/2000/svg">
<path d="M9.15171 3.3922L9.15171 5.5382L0.333374 8.44886L0.333374 6.74686L2.51637 6.04386L2.51637 2.67686L0.333374 1.9862L0.333374 0.44453L9.15171 3.3922ZM3.71271 3.0592L3.71271 5.66153L7.80737 4.36653L3.71271 3.0592ZM9.15171 11.1996L9.15171 14.3569C9.15171 16.2809 8.38704 17.2429 6.85771 17.2429L6.80837 17.2429C5.84637 17.2429 5.22148 16.7784 4.93371 15.8492C4.80215 16.4495 4.56782 16.8935 4.23071 17.1812C3.90182 17.469 3.44137 17.6129 2.84937 17.6129L2.80004 17.6129C1.98604 17.6129 1.36937 17.3539 0.95004 16.8359C0.538929 16.3179 0.333373 15.5697 0.333373 14.5912L0.333374 11.1996L9.15171 11.1996ZM1.50504 14.3939C1.50504 15.4628 1.97371 15.9972 2.91104 15.9972L2.96037 15.9972C3.42904 15.9972 3.77437 15.8616 3.99637 15.5902C4.21837 15.3189 4.32937 14.8831 4.32937 14.2829L4.32937 12.8029L1.50504 12.8029L1.50504 14.3939ZM5.43937 14.1596C5.43937 14.694 5.54215 15.0764 5.74771 15.3066C5.95326 15.545 6.28215 15.6642 6.73437 15.6642L6.78371 15.6642C7.20304 15.6642 7.50726 15.5409 7.69637 15.2942C7.88548 15.0476 7.98004 14.6611 7.98004 14.1349L7.98004 12.8029L5.43937 12.8029L5.43937 14.1596ZM1.52971 24.611C1.52971 25.4415 1.81748 26.0992 2.39304 26.5844C2.97682 27.0777 3.74971 27.3244 4.71171 27.3244L4.81037 27.3244C5.73948 27.3244 6.49593 27.0777 7.07971 26.5844C7.67171 26.0992 7.96771 25.4332 7.96771 24.5864C7.96771 23.7312 7.67993 23.057 7.10437 22.5637C6.52882 22.0786 5.76004 21.836 4.79804 21.836L4.69937 21.836C3.7456 21.836 2.97682 22.095 2.39304 22.613C1.81748 23.131 1.52971 23.797 1.52971 24.611ZM0.21004 24.5864C0.21004 23.2544 0.633484 22.1772 1.48037 21.355C2.32726 20.5328 3.39615 20.1217 4.68704 20.1217L4.78571 20.1217C6.08482 20.1217 7.15782 20.5369 8.00471 21.3674C8.8516 22.206 9.27504 23.279 9.27504 24.5864C9.27504 25.8937 8.85571 26.9585 8.01704 27.7807C7.1866 28.6111 6.12182 29.0264 4.82271 29.0264L4.72404 29.0264C3.42493 29.0264 2.34782 28.6152 1.49271 27.793C0.637595 26.979 0.21004 25.9101 0.21004 24.5864ZM0.210039 35.4071C0.210039 34.2889 0.506039 33.4297 1.09804 32.8295C1.69004 32.2375 2.55337 31.9415 3.68804 31.9415L9.15171 31.9415L9.15171 33.5941L3.81137 33.5941C2.99737 33.5941 2.41359 33.7339 2.06004 34.0135C1.70648 34.293 1.52971 34.7617 1.52971 35.4195C1.52971 36.0855 1.70648 36.5706 2.06004 36.8748C2.41359 37.179 3.03437 37.3311 3.92237 37.3311L9.15171 37.3311L9.15171 38.9838L3.78671 38.9838C2.61915 38.9838 1.73115 38.6796 1.12271 38.0711C0.514261 37.4709 0.210039 36.5829 0.210039 35.4071ZM7.85671 44.0967L7.85671 41.6424L9.15171 41.6424L9.15171 48.2037L7.85671 48.2037L7.85671 45.7494L0.333372 45.7494L0.333372 44.0967L7.85671 44.0967ZM9.15171 55.272L9.15171 57.4673L3.13304 59.786L9.1517 62.0553L9.1517 64.226L0.333371 64.226L0.333371 62.5856L6.99337 62.5856L0.333371 59.9586L0.333371 59.4283L6.99337 56.752L0.333372 56.752L0.333372 55.272L9.15171 55.272ZM9.1517 67.6492L9.1517 73.1622L7.8567 73.1622L7.8567 69.2895L5.43937 69.2895L5.43937 72.3975L4.20604 72.3975L4.20604 69.2895L1.62837 69.2895L1.62837 73.3718L0.333371 73.3718L0.333371 67.6492L9.1517 67.6492Z" fill="#646464"/>
</svg>
