<svg width="10" height="80" viewBox="0 0 10 80" fill="none" xmlns="http://www.w3.org/2000/svg">
<path d="M0.18405 79.8785L0.18405 77.0426C0.18405 76.0233 0.41421 75.226 0.87453 74.6506C1.33485 74.0669 2.013 73.7751 2.90898 73.7751L2.9583 73.7751C3.85428 73.7751 4.52832 74.0669 4.98042 74.6506C5.4243 75.2342 5.64624 76.0192 5.64624 77.0056L5.64624 78.2386L9 78.2386L9 79.8785L0.18405 79.8785ZM4.46256 77.0426C4.46256 75.9329 3.96114 75.378 2.9583 75.378L2.90898 75.378C1.93902 75.378 1.45404 75.9329 1.45404 77.0426L1.45404 78.2386L4.46256 78.2386L4.46256 77.0426ZM7.80399 66.856C7.80399 66.0258 7.51629 65.3682 6.94089 64.8832C6.35727 64.39 5.58459 64.1434 4.62285 64.1434L4.52421 64.1434C3.59535 64.1434 2.83911 64.39 2.25549 64.8832C1.66365 65.3682 1.36773 66.034 1.36773 66.8806C1.36773 67.7355 1.65543 68.4096 2.23083 68.9028C2.80623 69.3877 3.5748 69.6302 4.53654 69.6302L4.63518 69.6302C5.5887 69.6302 6.35727 69.3713 6.94089 68.8534C7.51629 68.3356 7.80399 67.6698 7.80399 66.856ZM9.1233 66.8806C9.1233 68.2123 8.69997 69.2891 7.85331 70.1111C7.00665 70.9331 5.93805 71.3441 4.64751 71.3441L4.54887 71.3441C3.25011 71.3441 2.1774 70.929 1.33074 70.0988C0.48408 69.2603 0.0607499 68.1876 0.0607499 66.8806C0.0607499 65.5737 0.47997 64.5092 1.31841 63.6872C2.14863 62.857 3.21312 62.4418 4.51188 62.4418L4.61052 62.4418C5.90928 62.4418 6.9861 62.8528 7.84098 63.6748C8.69586 64.4886 9.1233 65.5572 9.1233 66.8806ZM0.18405 59.4536L0.18405 56.4944C0.18405 55.4833 0.39777 54.6818 0.82521 54.09C1.25265 53.4982 1.90203 53.2022 2.77335 53.2022L2.82267 53.2022C4.04745 53.2022 4.83657 53.8557 5.19003 55.1627L9 52.6844L9 54.4599L5.43663 56.7656L5.43663 57.8137L9 57.8137L9 59.4536L0.18405 59.4536ZM4.26528 56.4944C4.26528 55.3764 3.79674 54.8175 2.85966 54.8175L2.81034 54.8175C2.31714 54.8175 1.96779 54.9613 1.76229 55.249C1.55679 55.5285 1.45404 55.9436 1.45404 56.4944L1.45404 57.8137L4.26528 57.8137L4.26528 56.4944ZM1.4787 48.387L1.4787 50.8407L0.18405 50.8407L0.18405 44.2811L1.4787 44.2811L1.4787 46.7348L9 46.7348L9 48.387L1.4787 48.387ZM0.18405 41.5572L0.18405 36.095L1.49103 36.095L1.49103 39.9173L4.11732 39.9173L4.11732 36.9088L5.38731 36.9088L5.38731 39.9173L9 39.9173L9 41.5572L0.18405 41.5572ZM7.80399 29.3294C7.80399 28.4992 7.51629 27.8416 6.94089 27.3566C6.35727 26.8634 5.58459 26.6168 4.62285 26.6168L4.52421 26.6168C3.59535 26.6168 2.83911 26.8634 2.25549 27.3566C1.66365 27.8416 1.36773 28.5074 1.36773 29.3541C1.36773 30.209 1.65543 30.883 2.23083 31.3762C2.80623 31.8612 3.5748 32.1037 4.53654 32.1037L4.63518 32.1037C5.5887 32.1037 6.35727 31.8448 6.94089 31.3269C7.51629 30.809 7.80399 30.1432 7.80399 29.3294ZM9.1233 29.3541C9.1233 30.6857 8.69997 31.7626 7.85331 32.5846C7.00665 33.4066 5.93805 33.8176 4.64751 33.8176L4.54887 33.8176C3.25011 33.8176 2.1774 33.4024 1.33074 32.5722C0.48408 31.7338 0.0607504 30.6611 0.0607504 29.3541C0.0607504 28.0471 0.47997 26.9826 1.31841 26.1606C2.14863 25.3304 3.21312 24.9153 4.51188 24.9153L4.61052 24.9153C5.90928 24.9153 6.9861 25.3263 7.84098 26.1483C8.69586 26.9621 9.1233 28.0307 9.1233 29.3541ZM0.18405 21.927L0.18405 20.2871L7.69302 20.2871L7.69302 16.5265L9 16.5265L9 21.927L0.18405 21.927ZM0.18405 13.6821L0.18405 12.0299L9 12.0299L9 13.6821L0.18405 13.6821ZM7.80399 4.50183C7.80399 3.67161 7.51629 3.01401 6.94089 2.52903C6.35727 2.03583 5.58459 1.78923 4.62285 1.78923L4.52421 1.78923C3.59535 1.78923 2.83911 2.03583 2.25549 2.52903C1.66365 3.01401 1.36773 3.67983 1.36773 4.52649C1.36773 5.38137 1.65543 6.05541 2.23083 6.54861C2.80623 7.03359 3.5748 7.27608 4.53654 7.27608L4.63518 7.27608C5.5887 7.27608 6.35727 7.01715 6.94089 6.49929C7.51629 5.98143 7.80399 5.31561 7.80399 4.50183ZM9.1233 4.52649C9.1233 5.85813 8.69997 6.93495 7.85331 7.75695C7.00665 8.57895 5.93805 8.98995 4.64751 8.98995L4.54887 8.98995C3.25011 8.98995 2.1774 8.57484 1.33074 7.74462C0.484081 6.90618 0.0607507 5.83347 0.0607507 4.52649C0.0607507 3.21951 0.479971 2.15502 1.31841 1.33302C2.14863 0.502799 3.21312 0.0876889 4.51188 0.0876889L4.61052 0.0876889C5.90928 0.087689 6.9861 0.498689 7.84098 1.32069C8.69586 2.13447 9.1233 3.20307 9.1233 4.52649Z" fill="#646464"/>
</svg>
